<?xml version="1.0" encoding="UTF-8" standalone="no"?>
<!-- Created with Inkscape (http://www.inkscape.org/) -->

<svg
   xmlns:dc="http://purl.org/dc/elements/1.1/"
   xmlns:cc="http://creativecommons.org/ns#"
   xmlns:rdf="http://www.w3.org/1999/02/22-rdf-syntax-ns#"
   xmlns:svg="http://www.w3.org/2000/svg"
   xmlns="http://www.w3.org/2000/svg"
   xmlns:xlink="http://www.w3.org/1999/xlink"
   xmlns:sodipodi="http://sodipodi.sourceforge.net/DTD/sodipodi-0.dtd"
   xmlns:inkscape="http://www.inkscape.org/namespaces/inkscape"
   width="88.641197mm"
   height="100.71256mm"
   viewBox="0 0 314.08298 356.85554"
   id="svg2"
   version="1.1"
   inkscape:version="0.91 r13725"
   sodipodi:docname="logo.svg">
  <defs
     id="defs4">
    <linearGradient
       y2="333.24323"
       y1="404.76321"
       x2="54.496246"
       x1="-109.34929"
       id="a"
       gradientTransform="scale(1.074886,0.93033125)"
       gradientUnits="userSpaceOnUse">
      <stop
         id="stop4248"
         offset="0"
         stop-color="#ffff92" />
      <stop
         id="stop4250"
         offset="1"
         stop-color="#fff" />
    </linearGradient>
    <linearGradient
       inkscape:collect="always"
       xlink:href="#a"
       id="linearGradient4330"
       gradientUnits="userSpaceOnUse"
       gradientTransform="scale(1.074886,0.93033125)"
       x1="-109.34929"
       y1="404.76321"
       x2="54.496246"
       y2="333.24323" />
  </defs>
  <sodipodi:namedview
     id="base"
     pagecolor="#ffffff"
     bordercolor="#666666"
     borderopacity="1.0"
     inkscape:pageopacity="0.0"
     inkscape:pageshadow="2"
     inkscape:zoom="1.4"
     inkscape:cx="288.14911"
     inkscape:cy="153.67854"
     inkscape:document-units="px"
     inkscape:current-layer="layer1"
     showgrid="false"
     inkscape:window-width="1920"
     inkscape:window-height="1029"
     inkscape:window-x="0"
     inkscape:window-y="0"
     inkscape:window-maximized="1"
     fit-margin-top="0"
     fit-margin-left="0"
     fit-margin-right="0"
     fit-margin-bottom="0" />
  <metadata
     id="metadata7">
    <rdf:RDF>
      <cc:Work
         rdf:about="">
        <dc:format>image/svg+xml</dc:format>
        <dc:type
           rdf:resource="http://purl.org/dc/dcmitype/StillImage" />
        <dc:title></dc:title>
      </cc:Work>
    </rdf:RDF>
  </metadata>
  <g
     inkscape:label="Capa 1"
     inkscape:groupmode="layer"
     id="layer1"
     transform="translate(-145.65481,-59.247201)">
    <g
       id="g4196"
       transform="matrix(0.51124146,0,0,0.51124146,38.514498,-38.333505)">
      <path
         id="path4138"
         stroke-miterlimit="10"
         d="m 491.5,222.7 c 0,0 -53,-67.8 -98.7,0 0,0 -76.8,-19.9 -78.6,63.8 0,0 -47.5,19.9 -32.9,79.8 0,0 -47.5,35.9 -29.2,103.7 0,0 -57.7,47.9 -4.2,137.6 0,0 -3.5,38.2 27.9,43.9 0,0 -10.5,87.8 82.5,101.7 0,0 23.8,77.8 140.7,-14 l 0,-506 -7.5,-10.5"
         inkscape:connector-curvature="0"
         style="fill:#b2c7ff;fill-opacity:1;stroke:#ffffff;stroke-width:3.39890003;stroke-miterlimit:10" />
      <path
         id="path4140"
         d="m 396,222 0.3,1.2 c 0.2,0.8 0.5,2 1.1,3.6 1.1,3 2.9,7.4 6.2,11.9 1.6,2.2 3.7,4.4 6.1,6.4 2.4,2 5.4,3.6 8.6,4.8 6.5,2.4 14.3,2.6 21.8,1.1 l 2.9,-0.5 c 1,-0.2 1.9,-0.4 3,-0.4 1,-0.1 2,-0.3 3.1,-0.3 1,0 2,-0.1 3,-0.1 4,0 8,0.7 11.6,2.2 3.6,1.5 6.6,3.7 9,6.2 2.4,2.6 4.1,5.4 5.3,8.1 1.3,2.7 2.1,5.4 2.6,7.7 0.6,2.4 0.9,4.4 1.1,6.2 0.4,3.4 0.3,5.4 0.3,5.4 0,0 0,-2 -0.6,-5.4 -0.3,-1.7 -0.7,-3.7 -1.4,-6 -0.7,-2.3 -1.6,-4.8 -3,-7.4 -1.4,-2.6 -3.1,-5.2 -5.5,-7.5 -2.4,-2.3 -5.3,-4.2 -8.7,-5.4 -3.3,-1.2 -7.1,-1.7 -10.8,-1.5 -0.9,0 -1.9,0.1 -2.8,0.2 -0.9,0.1 -1.9,0.3 -2.8,0.4 -0.9,0.1 -1.9,0.4 -2.8,0.6 l -2.9,0.7 c -3.9,1 -8,1.5 -12.1,1.6 -4.1,0 -8.1,-0.5 -11.9,-1.7 -3.8,-1.2 -7.3,-2.9 -10.2,-5 -3,-2.1 -5.4,-4.6 -7.4,-7 -4,-4.9 -6.3,-9.7 -7.7,-13.1 -0.7,-1.7 -1.1,-3.1 -1.4,-4 -0.3,-0.9 -0.4,-1.6 -0.4,-1.5 -0.4,-1.8 0.7,-3.5 2.5,-3.9 1.8,-0.5 3.5,0.6 3.9,2.4 z"
         inkscape:connector-curvature="0"
         style="fill:#ffffff" />
      <path
         id="path4142"
         d="m 316.2,283.9 c 1.4,1.1 2.9,2.3 4.5,3.4 1.6,1.1 3.1,2.2 4.7,3.2 1.6,1 3.2,2 4.9,2.9 0.8,0.5 1.7,0.9 2.5,1.3 0.8,0.4 1.7,0.9 2.6,1.3 0.9,0.4 1.7,0.8 2.6,1.2 0.9,0.4 1.7,0.8 2.6,1.1 1.8,0.7 3.5,1.3 5.4,1.9 l 2.7,0.8 2.8,0.6 c 1.8,0.3 3.7,0.6 5.6,0.7 0.9,0.1 1.9,0.1 2.8,0.1 l 1.4,0 1.4,-0.1 c 0.9,-0.1 1.9,-0.1 2.8,-0.3 0.9,-0.2 1.8,-0.3 2.7,-0.6 0.9,-0.3 1.8,-0.5 2.7,-0.8 l 2.6,-1 2.4,-1.3 c 0.4,-0.2 0.8,-0.5 1.2,-0.7 l 1.1,-0.8 c 0.4,-0.3 0.8,-0.5 1.1,-0.8 l 1.1,-0.9 1.1,-0.9 c 0.4,-0.3 0.7,-0.6 1,-1 l 1.9,-2.1 c 0.6,-0.7 1.2,-1.5 1.8,-2.2 1.2,-1.5 2.1,-3.2 3.2,-4.8 0.5,-0.8 0.9,-1.7 1.4,-2.5 l 1.3,-2.6 0.1,-0.1 c 0,0 0,-0.1 0.1,-0.1 0.6,-0.7 1.2,-1.4 1.9,-2 0.6,-0.6 1.3,-1.3 2,-1.9 1.4,-1.2 2.8,-2.3 4.3,-3.3 0.8,-0.5 1.5,-1 2.3,-1.4 0.8,-0.4 1.6,-0.8 2.5,-1.2 0.4,-0.2 0.9,-0.3 1.3,-0.5 0.4,-0.2 0.9,-0.3 1.3,-0.4 0.4,-0.1 0.9,-0.2 1.3,-0.3 0.5,-0.1 0.9,-0.1 1.4,-0.2 0.9,-0.1 1.8,0 2.7,0.1 0.5,0.1 0.9,0.1 1.4,0.2 0.4,0.1 0.9,0.2 1.3,0.4 l 1.3,0.5 1.2,0.6 c 0.4,0.2 0.8,0.5 1.1,0.7 0.4,0.3 0.8,0.5 1.1,0.8 l 1,0.9 c 0.3,0.3 0.6,0.6 0.9,1 0.6,0.6 1.2,1.4 1.7,2 0.5,0.7 1,1.5 1.5,2.2 l 1.3,2.3 -1.5,-2.2 c -0.5,-0.7 -1,-1.4 -1.6,-2.1 -0.6,-0.6 -1.1,-1.3 -1.8,-1.9 -0.3,-0.3 -0.6,-0.6 -1,-0.9 l -1,-0.8 c -0.3,-0.3 -0.7,-0.5 -1.1,-0.7 -0.4,-0.2 -0.7,-0.5 -1.1,-0.6 -0.4,-0.2 -0.8,-0.4 -1.2,-0.5 l -1.2,-0.4 c -0.4,-0.1 -0.8,-0.2 -1.3,-0.3 -0.4,-0.1 -0.9,-0.1 -1.3,-0.2 -0.9,-0.1 -1.7,0 -2.6,0.1 -0.4,0 -0.8,0.1 -1.3,0.2 l -1.2,0.3 c -0.4,0.1 -0.8,0.2 -1.2,0.4 -0.4,0.1 -0.8,0.3 -1.2,0.5 -0.8,0.3 -1.5,0.8 -2.3,1.2 -0.7,0.4 -1.5,0.9 -2.2,1.4 -1.4,1 -2.7,2.2 -4,3.4 -0.6,0.6 -1.2,1.2 -1.8,1.9 -0.6,0.6 -1.1,1.3 -1.6,2 l 0.1,-0.2 -1.2,2.7 c -0.4,0.9 -0.8,1.8 -1.3,2.7 -1,1.7 -1.9,3.5 -3.1,5.2 -0.6,0.8 -1.1,1.7 -1.7,2.5 l -2,2.3 c -0.3,0.4 -0.7,0.8 -1,1.1 l -1.1,1.1 -1.1,1.1 -1.2,0.9 -1.2,0.9 c -0.4,0.3 -0.8,0.6 -1.3,0.9 -0.9,0.5 -1.8,1.1 -2.7,1.6 l -2.8,1.3 c -0.9,0.4 -1.9,0.7 -2.9,1 -1,0.4 -2,0.5 -3,0.8 -1,0.3 -2,0.4 -3.1,0.5 l -1.5,0.2 -1.5,0.1 c -1,0 -2.1,0.1 -3.1,0 -2.1,0 -4.1,-0.2 -6.1,-0.5 l -3,-0.5 -3,-0.7 c -2,-0.5 -3.9,-1.1 -5.8,-1.7 -1,-0.3 -1.9,-0.7 -2.9,-1 -1,-0.3 -1.9,-0.7 -2.8,-1.1 -0.9,-0.4 -1.9,-0.8 -2.8,-1.2 -0.9,-0.4 -1.8,-0.8 -2.7,-1.3 -1.8,-0.9 -3.6,-1.8 -5.3,-2.8 -1.8,-1 -3.5,-2 -5.2,-3.1 -1.7,-1.1 -3.4,-2.2 -5.1,-3.5 -1.4,-1.1 -1.7,-3.1 -0.7,-4.6 1.1,-1.4 3.1,-1.7 4.6,-0.7 0,-0.3 0,-0.2 0.1,-0.2 z"
         inkscape:connector-curvature="0"
         style="fill:#ffffff" />
      <path
         id="path4144"
         d="m 279.3,363.6 c 0,0 0.2,-0.1 0.4,-0.3 0.3,-0.2 0.7,-0.5 1.3,-0.8 1.1,-0.7 2.7,-1.7 4.8,-2.9 4.2,-2.4 10.2,-5.6 17.9,-8.7 7.6,-3 16.9,-5.9 27.1,-7.2 5.1,-0.7 10.5,-1 15.9,-0.7 1.4,0.1 2.7,0.2 4.1,0.3 1.4,0.2 2.7,0.3 4.1,0.5 l 2,0.4 1,0.2 0.7,0 0.5,0.1 3.9,1 c 5.4,1.8 10.2,4.4 14.8,7.3 1.1,0.8 2.2,1.5 3.3,2.3 1.1,0.8 2.1,1.6 3.2,2.4 l 1.6,1.2 1.5,1.2 c 1,0.8 2,1.7 2.9,2.5 3.8,3.4 7.3,6.8 10.5,10.1 0.8,0.8 1.6,1.7 2.4,2.5 0.8,0.8 1.5,1.6 2.3,2.4 1.5,1.6 2.9,3.2 4.2,4.7 2.7,3 5.1,5.8 7.2,8.3 2.1,2.5 4,4.7 5.5,6.5 3,3.6 4.7,5.7 4.7,5.7 0,0 -1.8,-2 -5,-5.5 -1.6,-1.7 -3.5,-3.8 -5.7,-6.3 -2.2,-2.4 -4.7,-5.1 -7.5,-8 -1.4,-1.5 -2.8,-3 -4.4,-4.5 l -2.3,-2.3 c -0.8,-0.8 -1.6,-1.6 -2.5,-2.4 -3.3,-3.2 -7,-6.4 -10.8,-9.6 -1,-0.8 -2,-1.5 -3,-2.3 l -1.5,-1.2 c -0.5,-0.4 -1,-0.7 -1.6,-1.1 -1.1,-0.7 -2.1,-1.5 -3.2,-2.2 l -3.3,-2.1 c -4.5,-2.6 -9.3,-5 -14.1,-6.4 l -3.9,-0.9 -0.5,-0.1 -0.4,-0.1 -1,-0.1 -1.9,-0.3 c -1.3,-0.1 -2.6,-0.2 -3.9,-0.4 -1.3,0 -2.6,-0.1 -3.9,-0.1 -5.2,-0.1 -10.2,0.4 -15.1,1.2 -9.7,1.7 -18.5,4.7 -25.7,7.9 -7.2,3.2 -12.9,6.5 -16.8,8.9 -1.9,1.2 -3.4,2.2 -4.4,2.9 -0.5,0.4 -0.9,0.6 -1.1,0.8 -0.2,0.2 -0.4,0.3 -0.4,0.3 -1.4,1.1 -3.5,0.8 -4.6,-0.6 -1.1,-1.4 -0.8,-3.5 0.6,-4.6 0.1,0.2 0.1,0.2 0.1,0.1 z"
         inkscape:connector-curvature="0"
         style="fill:#ffffff" />
      <path
         id="path4146"
         d="m 247.5,604.4 c 0,0 1.1,-0.1 3.3,-0.4 2.2,-0.3 5.4,-0.7 9.4,-1.5 4,-0.7 8.9,-1.8 14.5,-3.2 5.5,-1.4 11.8,-3.3 18.4,-5.7 6.6,-2.4 13.7,-5.4 20.8,-9.2 7.1,-3.8 14.3,-8.3 21.1,-13.9 6.8,-5.6 13.1,-12.2 18.3,-19.7 5.2,-7.6 9.2,-16.1 11.7,-25.2 1.2,-4.5 2.1,-9.1 2.7,-13.8 0.5,-4.7 0.8,-9.3 0.7,-14 -0.1,-9.3 -1.5,-18.4 -3.4,-27.1 -1,-4.3 -2.1,-8.6 -3.3,-12.7 -0.5,-2.1 -1.3,-4 -2.2,-5.9 -0.8,-1.9 -1.8,-3.7 -2.7,-5.5 -3.9,-7.1 -9,-13.1 -14.9,-17 -2.9,-1.9 -6.1,-3.3 -9.2,-4 -3.1,-0.8 -6.2,-0.9 -9.1,-0.7 -5.8,0.5 -10.6,2.3 -14.3,4.1 -0.9,0.5 -1.8,0.9 -2.6,1.3 -0.8,0.4 -1.6,0.9 -2.3,1.3 -0.7,0.4 -1.3,0.8 -1.9,1.1 -0.6,0.4 -1.1,0.7 -1.5,1 -1.8,1.3 -2.8,1.9 -2.8,1.9 0,0 1,-0.7 2.8,-2 0.5,-0.3 1,-0.7 1.5,-1.1 0.6,-0.4 1.2,-0.8 1.9,-1.2 0.7,-0.4 1.4,-0.9 2.2,-1.4 0.8,-0.4 1.7,-0.9 2.6,-1.4 3.7,-1.8 8.5,-3.8 14.4,-4.4 2.9,-0.2 6.1,-0.3 9.3,0.5 3.2,0.7 6.5,2 9.6,4 6.2,3.8 11.5,9.9 15.7,17.1 1,1.8 2,3.7 2.9,5.6 0.4,1 0.9,1.9 1.3,2.9 l 0.6,1.5 0.5,1.6 c 1.3,4.1 2.6,8.4 3.6,12.7 2.1,8.7 3.7,18 4,27.5 0.2,4.7 0,9.5 -0.4,14.4 -0.5,4.8 -1.3,9.6 -2.5,14.3 -2.4,9.4 -6.4,18.4 -11.6,26.5 -5.3,8 -11.7,15.1 -18.6,21 -6.9,5.9 -14.3,10.8 -21.6,14.9 -7.3,4 -14.5,7.3 -21.2,9.9 -6.8,2.6 -13.1,4.7 -18.8,6.3 -5.7,1.6 -10.7,2.8 -14.8,3.6 -4.2,0.9 -7.4,1.4 -9.7,1.8 -2.2,0.3 -3.5,0.5 -3.5,0.5 -1.8,0.2 -3.4,-1.1 -3.6,-2.9 -0.5,-1.6 0.8,-3.2 2.7,-3.4 z"
         inkscape:connector-curvature="0"
         style="fill:#ffffff" />
      <path
         id="path4148"
         d="m 500.9,490.9 c 0,0 -0.2,0.2 -0.6,0.4 -0.4,0.3 -1,0.8 -1.8,1.4 -1.5,1.2 -3.8,3.1 -6.5,5.7 -2.7,2.6 -6,5.8 -9.4,9.7 -3.4,3.9 -7.1,8.6 -10.4,14 -3.4,5.4 -6.5,11.6 -8.7,18.5 -2.2,6.9 -3.4,14.6 -2.9,22.5 0.5,7.9 2.8,15.9 6.5,23.4 0.4,1 0.9,1.9 1.5,2.8 l 1.6,2.8 0.8,1.4 0.8,1.4 c 0.6,0.9 1.1,2 1.6,3 2,4 3.6,8.3 4.7,12.6 2.2,8.7 2.5,17.8 1.6,26.5 -0.9,8.7 -3,17.1 -5.6,24.9 -2.6,7.8 -5.8,15.2 -9.2,21.9 -3.4,6.8 -6.9,13 -10.3,18.6 -6.9,11.2 -13.5,20 -18.2,26.1 -4.7,6 -7.7,9.3 -7.7,9.3 0,0 2.9,-3.3 7.5,-9.5 4.6,-6.1 10.9,-15.1 17.5,-26.4 3.3,-5.7 6.7,-11.9 9.9,-18.7 3.2,-6.8 6.2,-14.1 8.6,-21.9 2.4,-7.8 4.3,-16 4.9,-24.5 0.7,-8.5 0.1,-17.2 -2.2,-25.4 -1.1,-4.1 -2.7,-8.1 -4.7,-11.8 -0.5,-0.9 -0.9,-1.8 -1.6,-2.7 l -1.7,-2.8 -1.7,-2.9 c -0.6,-0.9 -1.2,-1.9 -1.6,-2.9 -4.1,-7.8 -6.7,-16.4 -7.5,-24.9 -0.7,-8.5 0.4,-16.8 2.5,-24.3 2.2,-7.5 5.4,-14.1 8.8,-19.9 3.4,-5.8 7.1,-10.8 10.6,-15 3.5,-4.2 6.8,-7.6 9.6,-10.4 2.8,-2.7 5.1,-4.8 6.7,-6.1 0.8,-0.7 1.4,-1.2 1.9,-1.5 0.4,-0.3 0.7,-0.5 0.7,-0.5 1.4,-1.1 3.5,-0.9 4.6,0.6 1.1,1.5 0.9,3.5 -0.6,4.6 0.1,-0.1 0.1,-0.1 0,0 z"
         inkscape:connector-curvature="0"
         style="fill:#ffffff" />
      <path
         id="path4150"
         d="m 362,396.2 c 0,0 1.1,2.6 3,7.3 0.5,1.2 1,2.4 1.6,3.8 0.6,1.4 1.3,2.8 2.1,4.4 0.7,1.6 1.5,3.3 2.4,5 0.8,1.8 1.9,3.5 2.9,5.4 1,1.9 2,3.9 3.2,5.9 1.2,2 2.4,4 3.7,6.1 0.3,0.5 0.6,1.1 1,1.6 0.4,0.5 0.7,1 1.1,1.5 0.7,1 1.4,2.1 2.2,3.1 0.7,1.1 1.5,2.1 2.2,3.2 0.8,1 1.6,2.1 2.4,3.1 0.8,1.1 1.6,2.1 2.5,3.2 0.8,1.1 1.8,2.1 2.7,3.1 0.9,1 1.8,2.1 2.7,3.1 0.4,0.5 0.9,1 1.4,1.5 l 1.5,1.5 3,3 c 1,1 2.1,1.9 3.2,2.8 1.1,0.9 2.1,1.9 3.2,2.8 l 3.4,2.6 c 2.2,1.8 4.6,3.2 6.9,4.8 0.6,0.4 1.2,0.8 1.8,1.1 l 1.8,1 1.8,1 c 0.6,0.4 1.2,0.7 1.8,1 2.5,1.2 4.9,2.5 7.5,3.4 2.5,1.1 5,1.9 7.5,2.7 1.2,0.4 2.5,0.7 3.8,1.1 1.2,0.3 2.5,0.7 3.7,0.9 1.2,0.3 2.5,0.5 3.7,0.8 1.2,0.2 2.4,0.4 3.6,0.5 4.8,0.6 9.3,1 13.5,0.9 4.2,0 8,-0.3 11.4,-0.8 3.4,-0.4 6.3,-1 8.6,-1.5 2.4,-0.5 4.2,-1.1 5.4,-1.4 0.6,-0.2 1.1,-0.3 1.3,-0.4 0.3,-0.1 0.4,-0.1 0.4,-0.1 l 0.1,0 c 1.7,-0.6 3.6,0.3 4.2,2 0.6,1.7 -0.3,3.6 -2,4.2 l -0.1,0 c 0,0 -0.2,0.1 -0.6,0.2 -0.4,0.1 -0.9,0.3 -1.6,0.5 -1.4,0.4 -3.4,0.9 -5.9,1.4 -2.6,0.5 -5.7,1 -9.3,1.3 -3.6,0.4 -7.6,0.5 -12.1,0.4 -4.4,-0.1 -9.2,-0.6 -14.2,-1.4 -1.2,-0.2 -2.5,-0.5 -3.8,-0.7 -1.3,-0.3 -2.5,-0.6 -3.8,-0.9 -1.3,-0.3 -2.6,-0.7 -3.9,-1.1 -1.3,-0.4 -2.6,-0.8 -3.9,-1.3 -2.6,-1 -5.2,-1.9 -7.8,-3.1 -2.6,-1.1 -5.1,-2.5 -7.7,-3.8 -0.6,-0.3 -1.3,-0.7 -1.9,-1.1 l -1.8,-1.1 -1.8,-1.1 -1.8,-1.2 c -2.3,-1.7 -4.8,-3.3 -7,-5.2 l -3.4,-2.8 c -1.1,-1 -2.1,-2 -3.2,-3 -1,-1 -2.1,-2 -3.1,-3 -1,-1 -2,-2.1 -2.9,-3.1 l -1.5,-1.6 c -0.5,-0.5 -1,-1 -1.4,-1.6 l -2.7,-3.3 c -0.9,-1.1 -1.8,-2.1 -2.6,-3.2 l -2.4,-3.3 -2.4,-3.3 c -0.7,-1.1 -1.4,-2.2 -2.1,-3.3 -0.7,-1.1 -1.4,-2.2 -2.1,-3.3 -0.3,-0.5 -0.7,-1.1 -1,-1.6 -0.3,-0.5 -0.6,-1.1 -0.9,-1.6 -1.2,-2.2 -2.4,-4.3 -3.5,-6.3 -1.1,-2 -2.1,-4.1 -3,-6 -0.9,-1.9 -1.9,-3.8 -2.7,-5.6 -0.8,-1.8 -1.5,-3.5 -2.2,-5.1 -0.7,-1.6 -1.3,-3.1 -1.9,-4.5 -0.5,-1.4 -1,-2.7 -1.5,-3.9 -1.7,-4.9 -2.7,-7.6 -2.7,-7.6 z"
         inkscape:connector-curvature="0"
         style="fill:#ffffff" />
      <path
         id="path4152"
         d="m 356.5,750.5 c 0,0 0.4,-0.3 1.2,-0.7 0.8,-0.5 1.9,-1.2 3.3,-2.2 2.9,-2 6.9,-4.9 11.5,-8.7 4.6,-3.8 9.8,-8.5 14.8,-14 5,-5.5 9.9,-11.9 13.7,-18.8 1.9,-3.5 3.5,-7.1 4.7,-10.8 1.2,-3.7 2,-7.5 2.4,-11.2 0.8,-7.4 -0.6,-14.5 -2.6,-20.1 -1,-2.8 -2.3,-5.3 -3.5,-7.5 -1.2,-2.1 -2.4,-3.9 -3.4,-5.4 -0.5,-0.7 -1,-1.4 -1.4,-1.9 -0.4,-0.5 -0.8,-1 -1.1,-1.4 -0.6,-0.7 -0.9,-1.1 -0.9,-1.1 0,0 0.3,0.4 1,1.1 0.3,0.4 0.7,0.8 1.2,1.3 0.4,0.5 0.9,1.2 1.5,1.9 1.1,1.4 2.4,3.2 3.7,5.2 1.3,2.1 2.7,4.6 3.9,7.4 1.2,2.8 2.2,6 2.9,9.5 0.7,3.5 1,7.2 0.8,11.1 -0.2,3.9 -0.8,7.9 -1.9,11.8 -1.1,3.9 -2.6,7.8 -4.4,11.5 -3.6,7.5 -8.3,14.3 -13.3,20.3 -4.9,6 -10,11.1 -14.6,15.3 -4.6,4.2 -8.6,7.4 -11.4,9.6 -1.4,1.1 -2.6,1.9 -3.4,2.5 -0.8,0.6 -1.3,0.9 -1.3,0.9 -1.5,1 -3.5,0.7 -4.5,-0.8 -1,-1.5 -0.7,-3.5 0.8,-4.5 l 0.3,-0.3 z"
         inkscape:connector-curvature="0"
         style="fill:#ffffff" />
      <path
         id="path4154"
         d="m 355.3,633.2 0.8,-1.6 c 0.5,-1 1.2,-2.5 2.2,-4.4 2,-3.7 5,-8.9 9.6,-14.5 2.3,-2.8 4.9,-5.8 8.2,-8.5 3.2,-2.7 7,-5.3 11.6,-6.8 4.5,-1.5 9.7,-1.8 14.5,-0.4 4.8,1.3 9,4 12.7,7.2 3.7,3.2 6.8,6.8 9.6,10.5 2.8,3.7 5.3,7.5 7.4,11.5 2.1,3.9 3.7,7.9 5,11.7 0.6,1.9 1.2,3.8 1.7,5.6 0.5,1.8 0.9,3.6 1.3,5.3 0.9,3.3 2.3,6.2 4.1,8.4 1.7,2.2 3.9,3.5 5.8,4.2 0.9,0.4 1.9,0.5 2.6,0.6 0.8,0 1.5,0.1 2,0.1 1.1,-0.1 1.7,-0.1 1.7,-0.1 0,0 -0.6,0.1 -1.7,0.2 -0.5,0.1 -1.2,0 -2,0 -0.8,-0.1 -1.7,-0.2 -2.7,-0.5 -2,-0.6 -4.3,-1.8 -6.2,-4 -1.9,-2.2 -3.5,-5.1 -4.6,-8.5 -0.6,-1.7 -1,-3.4 -1.6,-5.2 -0.6,-1.8 -1.2,-3.6 -1.9,-5.5 -1.4,-3.7 -3.2,-7.5 -5.3,-11.2 -2.1,-3.7 -4.8,-7.3 -7.7,-10.9 -2.9,-3.5 -6,-6.8 -9.6,-9.6 -3.5,-2.8 -7.5,-5 -11.6,-5.9 -4.1,-1 -8.3,-0.6 -12,0.9 -3.7,1.5 -7,3.8 -9.8,6.4 -2.8,2.6 -5.1,5.4 -7.1,8.1 -4,5.4 -6.7,10.5 -8.4,14 -0.9,1.8 -1.5,3.2 -1.9,4.2 -0.4,0.9 -0.6,1.4 -0.6,1.4 -0.7,1.7 -2.6,2.5 -4.3,1.8 -1.7,-0.9 -2.5,-2.8 -1.8,-4.5 z"
         inkscape:connector-curvature="0"
         style="fill:#ffffff" />
      <path
         id="path4156"
         d="m 360.8,537.2 c 0,0 0.3,-0.2 0.8,-0.6 0.5,-0.4 1.3,-0.9 2.4,-1.6 1,-0.7 2.3,-1.4 3.8,-2.3 1.5,-0.8 3.2,-1.8 5.1,-2.7 1.9,-0.9 4,-1.8 6.2,-2.7 2.3,-0.8 4.7,-1.6 7.3,-2.3 2.6,-0.6 5.3,-1.1 8.1,-1.2 1.4,-0.1 2.8,0 4.2,0 1.4,0.2 2.8,0.2 4.2,0.6 1.4,0.2 2.7,0.7 4.1,1.2 0.7,0.2 1.3,0.6 1.9,0.8 0.6,0.3 1.3,0.6 1.9,1 0.6,0.4 1.2,0.7 1.8,1.1 0.6,0.4 1.1,0.8 1.6,1.2 1.1,0.8 2,1.8 3,2.7 l 0.7,0.7 0.6,0.8 1.2,1.5 c 0.4,0.5 0.7,1 1.1,1.5 0.3,0.5 0.7,1 1,1.5 0.2,0.3 0.3,0.5 0.5,0.7 0.1,0.3 0.3,0.5 0.4,0.8 0.3,0.5 0.5,1 0.8,1.5 0.3,0.5 0.5,1 0.8,1.5 l 0.6,1.5 c 0.4,1 0.8,1.9 1.1,2.7 0.3,0.9 0.6,1.7 0.8,2.5 0.3,0.8 0.5,1.5 0.7,2.2 0.2,0.7 0.3,1.3 0.5,1.9 0.6,2.3 0.9,3.7 0.9,3.7 0,0 -0.4,-1.3 -1.1,-3.6 -0.2,-0.6 -0.3,-1.2 -0.6,-1.9 -0.3,-0.7 -0.5,-1.4 -0.8,-2.2 -0.3,-0.8 -0.6,-1.6 -0.9,-2.5 -0.4,-0.8 -0.8,-1.7 -1.2,-2.7 -0.2,-0.5 -0.4,-0.9 -0.7,-1.4 -0.3,-0.5 -0.5,-0.9 -0.8,-1.4 -0.3,-0.5 -0.6,-1 -0.8,-1.5 -0.1,-0.2 -0.3,-0.5 -0.4,-0.7 -0.2,-0.2 -0.3,-0.5 -0.5,-0.7 -0.3,-0.5 -0.7,-1 -1,-1.4 -0.3,-0.5 -0.7,-1 -1.1,-1.4 -0.4,-0.5 -0.8,-0.9 -1.2,-1.4 l -0.6,-0.7 c -0.2,-0.2 -0.5,-0.4 -0.7,-0.6 -0.9,-0.8 -1.8,-1.7 -2.9,-2.4 -0.5,-0.4 -1,-0.8 -1.6,-1.1 -0.6,-0.3 -1.1,-0.6 -1.7,-0.9 -0.6,-0.3 -1.2,-0.6 -1.8,-0.8 -0.6,-0.2 -1.2,-0.5 -1.8,-0.7 -1.3,-0.3 -2.5,-0.7 -3.9,-0.9 -1.3,-0.3 -2.6,-0.3 -3.9,-0.4 -1.3,0 -2.6,0 -3.9,0.2 -2.6,0.2 -5.1,0.8 -7.5,1.5 -2.4,0.7 -4.7,1.6 -6.8,2.5 -2.1,0.9 -4.1,1.9 -5.8,2.9 -1.8,0.9 -3.4,1.9 -4.7,2.8 -1.4,0.9 -2.6,1.7 -3.5,2.4 -1,0.7 -1.7,1.2 -2.2,1.6 -0.5,0.4 -0.7,0.6 -0.7,0.6 -0.9,0.7 -2.1,0.5 -2.8,-0.3 -1.3,-1.1 -1.2,-2.4 -0.2,-3.1 -0.1,0 0,0 0,0 z"
         inkscape:connector-curvature="0"
         style="fill:#ffffff" />
      <path
         id="path4158"
         d="m 413.8,439.8 c 0,0 0.9,0.1 2.7,0.2 1.8,0.1 4.3,0.1 7.6,-0.4 3.2,-0.5 7.1,-1.4 11.2,-3.4 4.1,-2 8.1,-5.3 11.2,-9.9 3.2,-4.6 5.1,-10.4 6.1,-16.7 0.9,-6.3 1,-13.1 0.2,-20 -0.1,-1.7 -0.4,-3.5 -0.7,-5.2 -0.3,-1.8 -0.5,-3.5 -0.8,-5.3 -0.3,-1.8 -0.7,-3.5 -1,-5.3 -0.4,-1.8 -0.9,-3.5 -1.3,-5.3 -1.7,-7.1 -4,-14.2 -6.4,-21.3 -1.2,-3.5 -2.6,-7 -3.8,-10.5 l -0.5,-1.3 c -0.2,-0.4 -0.3,-0.9 -0.5,-1.4 -0.3,-1 -0.6,-1.9 -0.8,-2.8 -0.5,-1.9 -0.8,-3.8 -0.9,-5.8 -0.3,-3.9 0,-7.8 1,-11.6 l 0.2,-0.7 0.1,-0.3 0.2,-0.4 c 0.2,-0.4 0.3,-0.8 0.5,-1.3 0.5,-1.1 1,-1.9 1.6,-2.7 1.2,-1.6 2.6,-3 4.2,-4.2 3.1,-2.3 6.8,-3.8 10.6,-4.3 3.7,-0.5 7.5,-0.1 10.8,1 3.4,1 6.4,2.6 9.1,4.4 2.7,1.8 5,3.9 7.1,5.9 4.2,4.2 7.4,8.5 9.9,12.4 0.7,1 1.2,2 1.8,2.9 0.6,0.9 1.1,1.8 1.6,2.7 1,1.8 1.9,3.4 2.6,4.9 0.7,1.5 1.4,2.8 2,4 0.5,1.2 1,2.2 1.4,3 0.7,1.6 1.1,2.5 1.1,2.5 0.7,1.6 0,3.6 -1.6,4.3 -1.6,0.7 -3.6,0 -4.3,-1.6 l 0,-0.2 c 0,0 -0.4,-0.8 -1,-2.4 -0.3,-0.8 -0.7,-1.8 -1.2,-2.9 -0.5,-1.1 -1.1,-2.4 -1.8,-3.9 -0.7,-1.5 -1.5,-3 -2.4,-4.7 -0.4,-0.9 -1,-1.7 -1.5,-2.6 -0.5,-0.9 -1,-1.8 -1.6,-2.8 -2.3,-3.8 -5.2,-7.9 -8.8,-11.8 -1.8,-1.9 -3.9,-3.8 -6.2,-5.4 -2.3,-1.6 -4.9,-3 -7.6,-3.9 -2.8,-0.9 -5.7,-1.4 -8.7,-1 -3,0.3 -6,1.4 -8.5,3.2 -1.3,0.9 -2.4,2 -3.4,3.2 -0.5,0.6 -0.9,1.3 -1.2,1.8 -0.2,0.2 -0.3,0.8 -0.5,1.1 l -0.1,0.2 0,0.1 -0.1,0.3 -0.4,0.4 c -1,3.2 -1.3,6.7 -1.1,10.2 0.1,1.7 0.3,3.5 0.7,5.2 0.2,0.9 0.4,1.7 0.6,2.5 0.1,0.4 0.3,0.9 0.4,1.3 l 0.4,1.3 c 1.2,3.6 2.4,7.1 3.6,10.7 2.2,7.2 4.3,14.5 5.8,21.7 0.4,1.8 0.8,3.6 1.1,5.4 l 0.9,5.4 c 0.3,1.8 0.5,3.6 0.7,5.4 0.2,1.8 0.5,3.6 0.5,5.3 0.6,7.1 0.3,14 -0.8,20.4 -1.2,6.4 -3.3,12.4 -6.7,17 -3.3,4.6 -7.6,8 -11.8,9.9 -4.2,2 -8.2,2.8 -11.4,3.2 -3.3,0.4 -5.9,0.3 -7.6,0.2 -1.6,-0.1 -2.5,-0.3 -2.5,-0.3 z"
         inkscape:connector-curvature="0"
         style="fill:#ffffff" />
      <path
         id="path4160"
         d="m 274.8,648.4 c 0,0 0.3,-0.1 0.7,-0.2 0.5,-0.1 1.2,-0.3 2.1,-0.5 1.8,-0.4 4.3,-0.9 7.3,-1.4 3,-0.5 6.6,-1 10.4,-1.2 1.9,-0.1 3.9,-0.2 5.9,-0.3 2,0 4.1,0 6.1,0.1 2.1,0.2 4.1,0.4 6.1,0.8 2,0.3 3.9,0.9 5.8,1.5 0.9,0.3 1.8,0.7 2.6,1.1 l 1.2,0.6 0.6,0.3 0.6,0.4 c 0.4,0.2 0.7,0.5 1.1,0.7 0.4,0.2 0.7,0.5 1,0.8 0.3,0.3 0.6,0.5 0.9,0.8 0.3,0.3 0.5,0.6 0.8,0.9 0.3,0.3 0.5,0.5 0.7,0.9 l 0.6,0.9 0.6,0.9 c 0.1,0.3 0.3,0.6 0.4,0.9 0.6,1.1 0.9,2.2 1.2,3 0.2,0.8 0.3,1.5 0.4,2 0.1,0.5 0.1,0.7 0.1,0.7 0,0 -0.1,-0.2 -0.2,-0.7 -0.1,-0.4 -0.3,-1.1 -0.6,-1.9 -0.4,-0.8 -0.7,-1.8 -1.4,-2.8 -0.2,-0.3 -0.3,-0.5 -0.5,-0.8 -0.2,-0.3 -0.4,-0.5 -0.6,-0.8 -0.2,-0.3 -0.4,-0.5 -0.7,-0.8 -0.2,-0.3 -0.5,-0.5 -0.8,-0.7 -0.3,-0.2 -0.5,-0.5 -0.8,-0.7 -0.3,-0.2 -0.6,-0.4 -0.9,-0.7 -0.3,-0.2 -0.6,-0.5 -1,-0.7 -0.4,-0.2 -0.7,-0.4 -1.1,-0.6 l -0.6,-0.3 -0.6,-0.2 c -0.4,-0.2 -0.8,-0.3 -1.2,-0.5 -0.8,-0.3 -1.7,-0.5 -2.6,-0.8 -1.8,-0.4 -3.6,-0.7 -5.5,-0.9 -1.9,-0.2 -3.9,-0.2 -5.8,-0.1 -2,0.1 -3.9,0.2 -5.8,0.5 -1.9,0.2 -3.8,0.5 -5.6,0.8 -3.6,0.6 -7,1.4 -9.8,2.2 -2.8,0.8 -5.2,1.5 -6.8,2 -0.8,0.3 -1.4,0.5 -1.9,0.6 -0.4,0.2 -0.6,0.2 -0.6,0.2 -1.7,0.6 -3.6,-0.3 -4.2,-2 -0.6,-1.7 0.3,-3.6 2,-4.2 0.2,0.2 0.3,0.2 0.4,0.2 z"
         inkscape:connector-curvature="0"
         style="fill:#ffffff" />
      <path
         id="path4162"
         d="m 249.7,467.7 0.2,-0.2 c 0.2,-0.2 0.4,-0.4 0.7,-0.6 0.6,-0.5 1.5,-1.1 2.7,-1.7 1.2,-0.6 2.8,-1.3 4.9,-1.6 2,-0.3 4.6,0 6.8,1.1 1.1,0.5 2.1,1.3 3.1,2.1 l 1.3,1.3 c 0.3,0.3 0.7,0.8 1,1.1 1.4,1.4 3.2,2.8 5,4.2 3.8,2.7 8.2,5.2 12.9,7.1 4.7,1.9 9.6,3.1 14.3,3 2.3,0 4.6,-0.3 6.6,-1 2,-0.7 3.9,-1.6 5.4,-2.7 0.8,-0.5 1.5,-1.1 2.1,-1.7 0.6,-0.6 1.2,-1.2 1.7,-1.8 0.5,-0.6 1,-1.2 1.4,-1.7 0.4,-0.6 0.7,-1.1 1,-1.6 0.3,-0.5 0.6,-0.9 0.8,-1.3 0.2,-0.4 0.4,-0.7 0.5,-1 0.3,-0.5 0.4,-0.8 0.4,-0.8 0,0 -0.1,0.3 -0.4,0.8 -0.1,0.3 -0.3,0.6 -0.5,1 -0.2,0.4 -0.4,0.9 -0.7,1.4 -0.3,0.5 -0.6,1 -0.9,1.7 -0.4,0.6 -0.8,1.2 -1.3,1.8 -0.5,0.6 -1.1,1.3 -1.6,2 -0.6,0.6 -1.3,1.3 -2.1,1.9 -1.5,1.3 -3.4,2.4 -5.5,3.3 -2.1,0.9 -4.5,1.4 -7,1.6 -2.5,0.2 -5.1,0.1 -7.7,-0.2 -2.6,-0.4 -5.2,-1 -7.8,-1.8 -5.1,-1.6 -10,-3.8 -14.3,-6.4 -2.2,-1.3 -4.1,-2.7 -6.1,-4.3 -0.5,-0.5 -0.8,-0.7 -1.3,-1.2 -0.3,-0.3 -0.7,-0.6 -1,-0.9 -0.7,-0.5 -1.3,-0.9 -2,-1.1 -1.3,-0.5 -2.4,-0.5 -3.5,-0.3 -1.1,0.2 -2,0.7 -2.7,1.2 -0.7,0.5 -1.3,0.9 -1.6,1.3 l -0.3,0.3 -0.1,0.1 0,0.1 c -1.2,1.3 -3.3,1.4 -4.6,0.1 -1.3,-1.2 -1.4,-3.3 -0.1,-4.6 0.2,0.1 0.3,0 0.3,0 z"
         inkscape:connector-curvature="0"
         style="fill:#ffffff" />
      <path
         id="path4164"
         stroke-miterlimit="10"
         d="m 508.5,222.7 c 0,0 53,-67.8 98.7,0 0,0 76.8,-19.9 78.6,63.8 0,0 47.5,19.9 32.9,79.8 0,0 47.5,35.9 29.2,103.7 0,0 57.7,47.9 4.2,137.6 0,0 3.5,38.2 -27.9,43.9 0,0 10.5,87.8 -82.5,101.7 0,0 -23.8,77.8 -140.7,-14 l 0,-506 7.5,-10.5"
         inkscape:connector-curvature="0"
         style="fill:#ffccaf;fill-opacity:1;stroke:#ffffff;stroke-width:3.39890003;stroke-miterlimit:10" />
      <path
         id="path4166"
         d="m 610.4,223.4 c 0,0 -0.1,0.6 -0.4,1.5 -0.3,1 -0.7,2.3 -1.4,4 -1.4,3.4 -3.7,8.2 -7.7,13.1 -2,2.4 -4.5,4.9 -7.4,7 -3,2.1 -6.4,3.9 -10.2,5 -3.8,1.2 -7.8,1.7 -11.9,1.7 -4.1,0 -8.1,-0.6 -12.1,-1.6 l -2.9,-0.7 c -1,-0.2 -1.9,-0.5 -2.8,-0.6 -0.9,-0.1 -1.8,-0.3 -2.8,-0.4 -0.9,-0.1 -1.9,-0.2 -2.8,-0.2 -3.7,-0.2 -7.5,0.3 -10.8,1.5 -3.4,1.2 -6.3,3.1 -8.7,5.4 -2.4,2.3 -4.1,4.9 -5.5,7.5 -1.4,2.6 -2.3,5.1 -3,7.4 -0.7,2.3 -1.1,4.3 -1.4,6 -0.6,3.4 -0.6,5.4 -0.6,5.4 0,0 -0.1,-2 0.3,-5.4 0.2,-1.7 0.5,-3.8 1.1,-6.2 0.6,-2.4 1.4,-5 2.6,-7.7 1.3,-2.7 3,-5.6 5.3,-8.1 2.4,-2.5 5.5,-4.8 9,-6.2 3.6,-1.5 7.6,-2.2 11.6,-2.2 1,0 2,0 3,0.1 1,0 2,0.2 3.1,0.3 1,0.1 2,0.3 3,0.4 l 2.9,0.5 c 7.5,1.5 15.3,1.3 21.8,-1.1 3.2,-1.2 6.2,-2.8 8.6,-4.8 2.5,-2 4.5,-4.2 6.1,-6.4 3.3,-4.5 5.1,-8.8 6.2,-11.9 0.5,-1.5 0.9,-2.8 1.1,-3.6 0.2,-0.9 0.3,-1.2 0.3,-1.2 0.4,-1.8 2.1,-2.9 3.9,-2.5 1.8,0.5 2.9,2.2 2.5,4 z"
         inkscape:connector-curvature="0"
         style="fill:#ffffff" />
      <path
         id="path4168"
         d="m 687.8,289.1 c -1.7,1.3 -3.3,2.4 -5.1,3.5 -1.7,1.1 -3.4,2.1 -5.2,3.1 -1.8,1 -3.5,1.9 -5.3,2.8 -0.9,0.5 -1.8,0.9 -2.7,1.3 -0.9,0.4 -1.8,0.8 -2.8,1.2 -0.9,0.4 -1.9,0.8 -2.8,1.1 -0.9,0.4 -1.9,0.7 -2.9,1 -1.9,0.7 -3.9,1.2 -5.8,1.7 l -3,0.7 -3,0.5 c -2,0.3 -4.1,0.5 -6.1,0.5 -1,0.1 -2.1,0 -3.1,0 l -1.5,-0.1 -1.5,-0.2 c -1,-0.1 -2,-0.2 -3.1,-0.5 -1,-0.3 -2,-0.4 -3,-0.8 -1,-0.3 -2,-0.6 -2.9,-1 l -2.8,-1.3 c -0.9,-0.5 -1.8,-1.1 -2.7,-1.6 -0.5,-0.3 -0.9,-0.6 -1.3,-0.9 l -1.2,-0.9 -1.2,-0.9 -1.1,-1.1 -1.1,-1.1 c -0.4,-0.3 -0.7,-0.7 -1,-1.1 l -2,-2.3 c -0.6,-0.8 -1.2,-1.6 -1.7,-2.5 -1.2,-1.6 -2.1,-3.4 -3.1,-5.2 -0.5,-0.9 -0.9,-1.8 -1.3,-2.7 l -1.2,-2.7 0.1,0.2 c -0.5,-0.7 -1.1,-1.3 -1.6,-2 -0.6,-0.6 -1.2,-1.3 -1.8,-1.9 -1.2,-1.2 -2.6,-2.4 -4,-3.4 -0.7,-0.5 -1.4,-1 -2.2,-1.4 -0.7,-0.4 -1.5,-0.9 -2.3,-1.2 -0.4,-0.2 -0.8,-0.3 -1.2,-0.5 -0.4,-0.2 -0.8,-0.3 -1.2,-0.4 l -1.2,-0.3 c -0.4,-0.1 -0.8,-0.2 -1.3,-0.2 -0.8,-0.1 -1.7,-0.1 -2.6,-0.1 -0.4,0.1 -0.9,0.1 -1.3,0.2 -0.4,0.1 -0.8,0.2 -1.3,0.3 l -1.2,0.4 c -0.4,0.2 -0.8,0.4 -1.2,0.5 -0.4,0.2 -0.8,0.4 -1.1,0.6 -0.4,0.2 -0.8,0.4 -1.1,0.7 l -1,0.8 c -0.3,0.3 -0.6,0.6 -1,0.9 -0.7,0.6 -1.2,1.3 -1.8,1.9 -0.6,0.7 -1.1,1.4 -1.6,2.1 l -1.5,2.2 1.3,-2.3 c 0.5,-0.7 1,-1.5 1.5,-2.2 0.6,-0.7 1.1,-1.4 1.7,-2 0.3,-0.3 0.6,-0.6 0.9,-1 l 1,-0.9 c 0.3,-0.3 0.7,-0.5 1.1,-0.8 0.4,-0.3 0.7,-0.5 1.1,-0.7 l 1.2,-0.6 1.3,-0.5 c 0.4,-0.1 0.9,-0.2 1.3,-0.4 0.4,-0.1 0.9,-0.2 1.4,-0.2 0.9,-0.1 1.8,-0.1 2.7,-0.1 0.5,0 0.9,0.1 1.4,0.2 0.5,0.1 0.9,0.2 1.3,0.3 0.4,0.1 0.9,0.2 1.3,0.4 0.4,0.1 0.9,0.3 1.3,0.5 0.9,0.3 1.7,0.7 2.5,1.2 0.8,0.4 1.6,0.9 2.3,1.4 1.5,1 2.9,2.1 4.3,3.3 0.7,0.6 1.3,1.2 2,1.9 0.6,0.6 1.2,1.3 1.9,2 l 0.1,0.1 0.1,0.1 1.3,2.6 c 0.5,0.8 0.8,1.7 1.4,2.5 1,1.6 2,3.3 3.2,4.8 0.6,0.7 1.1,1.5 1.8,2.2 l 1.9,2.1 c 0.3,0.4 0.7,0.7 1,1 l 1.1,0.9 1.1,0.9 c 0.4,0.3 0.8,0.5 1.1,0.8 l 1.1,0.8 c 0.4,0.3 0.8,0.5 1.2,0.7 l 2.4,1.3 2.6,1 c 0.9,0.3 1.8,0.5 2.7,0.8 0.9,0.3 1.8,0.4 2.7,0.6 0.9,0.2 1.8,0.3 2.8,0.3 l 1.4,0.1 1.4,0 c 0.9,0 1.9,0 2.8,-0.1 1.9,-0.1 3.7,-0.4 5.6,-0.7 l 2.8,-0.6 2.7,-0.8 c 1.8,-0.6 3.6,-1.2 5.4,-1.9 0.9,-0.3 1.8,-0.7 2.6,-1.1 0.9,-0.4 1.7,-0.8 2.6,-1.2 0.9,-0.4 1.7,-0.8 2.6,-1.3 0.8,-0.4 1.7,-0.9 2.5,-1.3 1.7,-0.9 3.3,-1.9 4.9,-2.9 1.6,-1 3.2,-2.1 4.7,-3.2 1.5,-1.1 3.1,-2.2 4.5,-3.4 1.4,-1.1 3.4,-0.9 4.6,0.4 1.1,1.4 0.9,3.4 -0.4,4.6 -0.1,0.4 -0.1,0.4 -0.2,0.5 z"
         inkscape:connector-curvature="0"
         style="fill:#ffffff" />
      <path
         id="path4170"
         d="m 716.8,368.9 c 0,0 -0.1,-0.1 -0.4,-0.3 -0.3,-0.2 -0.6,-0.4 -1.1,-0.8 -1,-0.7 -2.5,-1.7 -4.4,-2.9 -3.9,-2.4 -9.6,-5.8 -16.8,-8.9 -7.2,-3.2 -16,-6.2 -25.7,-7.9 -4.8,-0.8 -9.9,-1.3 -15.1,-1.2 -1.3,0 -2.6,0.1 -3.9,0.1 -1.3,0.1 -2.6,0.2 -3.9,0.4 l -1.9,0.3 -1,0.1 -0.4,0.1 -0.5,0.1 -3.9,0.9 c -4.8,1.4 -9.7,3.7 -14.1,6.4 l -3.3,2.1 c -1.1,0.7 -2.1,1.5 -3.2,2.2 -0.5,0.4 -1,0.7 -1.6,1.1 l -1.5,1.2 c -1,0.8 -2,1.6 -3,2.3 -3.8,3.2 -7.5,6.4 -10.8,9.6 -0.8,0.8 -1.7,1.6 -2.5,2.4 l -2.3,2.3 c -1.5,1.5 -3,3 -4.4,4.5 -2.8,2.9 -5.3,5.6 -7.5,8 -2.2,2.4 -4.1,4.5 -5.7,6.3 -3.2,3.5 -5,5.5 -5,5.5 0,0 1.7,-2.1 4.7,-5.7 1.5,-1.8 3.4,-4 5.5,-6.5 2.1,-2.5 4.5,-5.3 7.2,-8.3 1.3,-1.5 2.7,-3.1 4.2,-4.7 0.7,-0.8 1.5,-1.6 2.3,-2.4 0.8,-0.8 1.6,-1.6 2.4,-2.5 3.2,-3.3 6.8,-6.7 10.5,-10.1 1,-0.8 1.9,-1.6 2.9,-2.5 l 1.5,-1.2 1.6,-1.2 c 1,-0.8 2.1,-1.6 3.2,-2.4 1.1,-0.8 2.2,-1.5 3.3,-2.3 4.5,-2.9 9.3,-5.5 14.8,-7.3 l 3.9,-1 0.5,-0.1 0.7,0 1,-0.2 2,-0.4 c 1.4,-0.2 2.7,-0.3 4.1,-0.5 1.4,-0.1 2.7,-0.2 4.1,-0.3 5.4,-0.3 10.8,0 15.9,0.7 10.2,1.4 19.5,4.2 27.1,7.2 7.7,3 13.7,6.3 17.9,8.7 2.1,1.2 3.7,2.2 4.8,2.9 0.6,0.4 1,0.6 1.3,0.8 0.3,0.2 0.4,0.3 0.4,0.3 1.5,1 1.8,3.1 0.8,4.5 -1,1.5 -3.1,1.8 -4.5,0.8 l -0.2,-0.2 z"
         inkscape:connector-curvature="0"
         style="fill:#ffffff" />
      <path
         id="path4172"
         d="m 751.8,610.9 c 0,0 -1.3,-0.1 -3.5,-0.5 -2.3,-0.3 -5.6,-0.9 -9.7,-1.8 -4.2,-0.9 -9.2,-2 -14.8,-3.6 -5.7,-1.6 -12,-3.6 -18.8,-6.3 -6.8,-2.6 -13.9,-5.9 -21.2,-9.9 -7.3,-4.1 -14.6,-9 -21.6,-14.9 -6.9,-6 -13.4,-13 -18.6,-21 -5.2,-8 -9.3,-17.1 -11.6,-26.5 -1.2,-4.7 -2,-9.5 -2.5,-14.3 -0.4,-4.8 -0.6,-9.6 -0.4,-14.4 0.3,-9.5 1.9,-18.7 4,-27.5 1.1,-4.4 2.3,-8.6 3.6,-12.7 l 0.5,-1.6 0.6,-1.5 c 0.4,-1 0.8,-2 1.3,-2.9 0.9,-1.9 1.9,-3.8 2.9,-5.6 4.2,-7.1 9.5,-13.2 15.7,-17.1 3.1,-1.9 6.4,-3.2 9.6,-4 3.2,-0.8 6.4,-0.7 9.3,-0.5 5.9,0.6 10.7,2.6 14.4,4.4 0.9,0.5 1.8,0.9 2.6,1.4 0.8,0.5 1.5,0.9 2.2,1.4 0.7,0.4 1.3,0.8 1.9,1.2 0.6,0.4 1.1,0.8 1.5,1.1 1.8,1.3 2.8,2 2.8,2 0,0 -1,-0.7 -2.8,-1.9 -0.5,-0.3 -1,-0.7 -1.5,-1 -0.6,-0.3 -1.2,-0.7 -1.9,-1.1 -0.7,-0.4 -1.4,-0.9 -2.3,-1.3 -0.8,-0.4 -1.7,-0.8 -2.6,-1.3 -3.8,-1.7 -8.6,-3.6 -14.3,-4.1 -2.9,-0.2 -6,-0.1 -9.1,0.7 -3.1,0.8 -6.3,2.1 -9.2,4 -5.9,3.8 -11,9.9 -14.9,17 -1,1.8 -1.9,3.6 -2.7,5.5 -0.8,1.9 -1.6,3.8 -2.2,5.9 -1.2,4.1 -2.4,8.3 -3.3,12.7 -1.9,8.7 -3.2,17.8 -3.4,27.1 -0.1,4.6 0.2,9.3 0.7,14 0.6,4.6 1.5,9.3 2.7,13.8 2.5,9 6.5,17.6 11.7,25.2 5.2,7.6 11.5,14.2 18.3,19.7 6.8,5.6 14,10.1 21.1,13.9 7.1,3.8 14.2,6.8 20.8,9.2 6.6,2.4 12.8,4.3 18.4,5.7 5.5,1.4 10.4,2.5 14.5,3.2 4,0.7 7.2,1.2 9.4,1.5 2.2,0.3 3.3,0.4 3.3,0.4 1.8,0.2 3.1,1.7 3,3.5 -0.2,1.8 -1.7,3.1 -3.5,3 -0.3,-0.2 -0.3,-0.2 -0.4,-0.2 z"
         inkscape:connector-curvature="0"
         style="fill:#ffffff" />
      <path
         id="path4174"
         d="m 639.9,756 c 0,0 -0.4,-0.3 -1.3,-0.9 -0.8,-0.6 -2,-1.4 -3.4,-2.5 -2.9,-2.2 -6.9,-5.4 -11.4,-9.6 -4.6,-4.2 -9.7,-9.3 -14.6,-15.3 -4.9,-6 -9.7,-12.8 -13.3,-20.3 -1.8,-3.7 -3.3,-7.6 -4.4,-11.5 -1.1,-3.9 -1.7,-7.9 -1.9,-11.8 -0.2,-3.9 0.1,-7.6 0.8,-11.1 0.7,-3.5 1.7,-6.7 2.9,-9.5 1.2,-2.8 2.6,-5.3 3.9,-7.4 1.3,-2.1 2.6,-3.9 3.7,-5.2 0.6,-0.7 1,-1.3 1.5,-1.9 0.5,-0.5 0.8,-1 1.2,-1.3 0.6,-0.7 1,-1.1 1,-1.1 0,0 -0.3,0.4 -0.9,1.1 -0.3,0.4 -0.7,0.8 -1.1,1.4 -0.4,0.6 -0.9,1.2 -1.4,1.9 -1,1.4 -2.2,3.3 -3.4,5.4 -1.2,2.2 -2.4,4.6 -3.5,7.5 -2.1,5.6 -3.4,12.7 -2.6,20.1 0.4,3.7 1.1,7.5 2.4,11.2 1.2,3.7 2.8,7.3 4.7,10.8 3.8,7 8.7,13.3 13.7,18.8 5,5.5 10.2,10.2 14.8,14 4.6,3.8 8.6,6.7 11.5,8.7 1.4,1 2.6,1.7 3.3,2.2 0.8,0.5 1.2,0.7 1.2,0.7 l 0.1,0 c 1.5,1 2,3 1,4.5 -1,1.5 -3,2 -4.5,1 0.1,0.1 0.1,0.1 0,0.1 z"
         inkscape:connector-curvature="0"
         style="fill:#ffffff" />
      <path
         id="path4176"
         d="m 638.7,635.7 c 0,0 -0.2,-0.5 -0.6,-1.4 -0.4,-1 -1,-2.4 -1.9,-4.2 -1.7,-3.5 -4.4,-8.6 -8.4,-14 -2,-2.7 -4.3,-5.5 -7.1,-8.1 -2.8,-2.6 -6,-4.9 -9.8,-6.4 -3.7,-1.4 -7.9,-1.9 -12,-0.9 -4.1,0.9 -8.1,3.2 -11.6,5.9 -3.5,2.8 -6.7,6.1 -9.6,9.6 -2.8,3.5 -5.5,7.2 -7.7,10.9 -2.2,3.7 -3.9,7.5 -5.3,11.2 -0.7,1.9 -1.3,3.7 -1.9,5.5 -0.6,1.8 -1,3.5 -1.6,5.2 -1.1,3.4 -2.7,6.3 -4.6,8.5 -1.9,2.2 -4.2,3.5 -6.2,4 -1,0.3 -1.9,0.4 -2.7,0.5 -0.8,0 -1.5,0.1 -2,0 -1.1,-0.1 -1.7,-0.2 -1.7,-0.2 0,0 0.6,0 1.7,0.1 0.5,0 1.2,-0.1 2,-0.1 0.8,-0.1 1.7,-0.2 2.6,-0.6 1.9,-0.6 4.1,-1.9 5.8,-4.2 1.8,-2.2 3.1,-5.1 4.1,-8.4 0.5,-1.7 0.8,-3.5 1.3,-5.3 0.5,-1.8 1.1,-3.7 1.7,-5.6 1.3,-3.8 2.9,-7.8 5,-11.7 2.1,-4 4.6,-7.7 7.4,-11.5 2.8,-3.7 5.9,-7.3 9.6,-10.5 3.7,-3.1 7.9,-5.8 12.7,-7.2 4.8,-1.4 10,-1.1 14.5,0.4 4.5,1.5 8.3,4.1 11.6,6.8 3.2,2.7 5.9,5.7 8.2,8.5 4.5,5.7 7.6,10.9 9.6,14.5 1,1.8 1.7,3.3 2.2,4.4 l 0.8,1.6 c 0.7,1.7 0,3.6 -1.7,4.3 -1.7,0.9 -3.7,0.1 -4.4,-1.6 z"
         inkscape:connector-curvature="0"
         style="fill:#ffffff" />
      <path
         id="path4178"
         d="m 636.8,540.3 c 0,0 -0.3,-0.2 -0.7,-0.6 -0.5,-0.4 -1.2,-0.9 -2.2,-1.6 -1,-0.7 -2.1,-1.5 -3.5,-2.4 -1.4,-0.9 -3,-1.8 -4.7,-2.8 -1.8,-1 -3.7,-1.9 -5.8,-2.9 -2.1,-0.9 -4.4,-1.8 -6.8,-2.5 -2.4,-0.7 -4.9,-1.3 -7.5,-1.5 -1.3,-0.2 -2.6,-0.1 -3.9,-0.2 -1.3,0.1 -2.6,0.1 -3.9,0.4 -1.3,0.2 -2.6,0.6 -3.9,0.9 -0.6,0.2 -1.2,0.5 -1.8,0.7 -0.6,0.2 -1.2,0.5 -1.8,0.8 -0.6,0.3 -1.1,0.6 -1.7,0.9 -0.6,0.3 -1.1,0.7 -1.6,1.1 -1.1,0.7 -2,1.6 -2.9,2.4 -0.2,0.2 -0.5,0.4 -0.7,0.6 l -0.6,0.7 c -0.4,0.5 -0.8,0.9 -1.2,1.4 -0.4,0.4 -0.8,0.9 -1.1,1.4 -0.3,0.5 -0.7,1 -1,1.4 -0.2,0.2 -0.3,0.5 -0.5,0.7 -0.2,0.2 -0.3,0.5 -0.4,0.7 -0.3,0.5 -0.6,1 -0.8,1.5 -0.3,0.5 -0.5,0.9 -0.8,1.4 -0.2,0.5 -0.4,1 -0.7,1.4 l -1.2,2.7 c -0.4,0.9 -0.6,1.7 -0.9,2.5 -0.3,0.8 -0.6,1.5 -0.8,2.2 -0.2,0.7 -0.4,1.3 -0.6,1.9 -0.7,2.3 -1.1,3.6 -1.1,3.6 0,0 0.3,-1.3 0.9,-3.7 0.2,-0.6 0.3,-1.2 0.5,-1.9 0.2,-0.7 0.5,-1.4 0.7,-2.2 0.3,-0.8 0.5,-1.7 0.8,-2.5 0.4,-0.9 0.7,-1.8 1.1,-2.7 l 0.6,-1.5 c 0.2,-0.5 0.5,-1 0.8,-1.5 0.3,-0.5 0.5,-1 0.8,-1.5 0.1,-0.3 0.3,-0.5 0.4,-0.8 0.2,-0.2 0.3,-0.5 0.5,-0.7 0.3,-0.5 0.6,-1 1,-1.5 0.3,-0.5 0.6,-1.1 1.1,-1.5 l 1.2,-1.5 0.6,-0.8 0.7,-0.7 c 0.9,-0.9 1.8,-1.9 3,-2.7 0.5,-0.4 1.1,-0.9 1.6,-1.2 0.6,-0.4 1.2,-0.7 1.8,-1.1 0.6,-0.4 1.2,-0.7 1.9,-1 0.6,-0.3 1.3,-0.6 1.9,-0.8 1.3,-0.4 2.7,-0.9 4.1,-1.2 1.4,-0.4 2.8,-0.4 4.2,-0.6 1.4,0 2.8,-0.1 4.2,0 2.8,0.1 5.5,0.6 8.1,1.2 2.6,0.6 5,1.4 7.3,2.3 2.2,0.9 4.3,1.8 6.2,2.7 1.9,0.9 3.6,1.8 5.1,2.7 1.5,0.9 2.8,1.6 3.8,2.3 1,0.7 1.8,1.2 2.4,1.6 0.5,0.4 0.8,0.6 0.8,0.6 0.9,0.6 1.1,1.9 0.5,2.8 -0.6,0.9 -1.9,1.1 -2.8,0.5 -0.6,0.2 -0.7,0.2 -0.7,0.1 z"
         inkscape:connector-curvature="0"
         style="fill:#ffffff" />
      <path
         id="path4180"
         d="m 586.2,439.8 c 0,0 -0.9,0.2 -2.7,0.3 -1.8,0.1 -4.3,0.2 -7.6,-0.2 -3.3,-0.4 -7.2,-1.2 -11.4,-3.2 -4.2,-1.9 -8.4,-5.2 -11.8,-9.9 -3.4,-4.6 -5.6,-10.6 -6.7,-17 -1.1,-6.4 -1.4,-13.3 -0.8,-20.4 0.1,-1.8 0.3,-3.5 0.5,-5.3 0.2,-1.8 0.4,-3.6 0.7,-5.4 l 0.9,-5.4 c 0.3,-1.8 0.8,-3.6 1.1,-5.4 1.5,-7.3 3.6,-14.5 5.8,-21.7 1.1,-3.6 2.4,-7.1 3.6,-10.7 l 0.4,-1.3 c 0.1,-0.4 0.3,-0.9 0.4,-1.3 0.2,-0.8 0.5,-1.7 0.6,-2.5 0.4,-1.7 0.6,-3.5 0.7,-5.2 0.2,-3.5 -0.2,-6.9 -1.1,-10.2 l -0.2,-0.6 -0.1,-0.3 c 0,0 0.1,0.2 0,0 l 0,-0.1 -0.1,-0.2 c -0.2,-0.4 -0.3,-0.9 -0.5,-1.1 -0.3,-0.6 -0.7,-1.2 -1.2,-1.8 -0.9,-1.2 -2.1,-2.3 -3.4,-3.2 -2.5,-1.8 -5.5,-2.9 -8.5,-3.2 -3,-0.4 -6,0.1 -8.7,1 -2.8,0.9 -5.3,2.3 -7.6,3.9 -2.3,1.7 -4.3,3.5 -6.2,5.4 -3.7,3.9 -6.5,8 -8.8,11.8 -0.6,0.9 -1.1,1.9 -1.6,2.8 -0.5,0.9 -1,1.8 -1.5,2.6 -0.9,1.7 -1.7,3.3 -2.4,4.7 -0.7,1.5 -1.3,2.8 -1.8,3.9 -0.5,1.2 -0.9,2.1 -1.2,2.9 -0.7,1.6 -1,2.4 -1,2.4 l 0,0.1 c -0.7,1.7 -2.6,2.4 -4.3,1.7 -1.7,-0.7 -2.4,-2.6 -1.7,-4.3 l 0,-0.1 c 0,0 0.4,-0.9 1.1,-2.5 0.4,-0.8 0.8,-1.8 1.4,-3 0.6,-1.2 1.2,-2.5 2,-4 0.7,-1.5 1.7,-3.1 2.6,-4.9 0.5,-0.9 1.1,-1.8 1.6,-2.7 0.6,-0.9 1.1,-1.9 1.8,-2.9 2.6,-3.9 5.7,-8.3 9.9,-12.4 2.1,-2.1 4.5,-4.1 7.1,-5.9 2.7,-1.8 5.7,-3.4 9.1,-4.4 3.4,-1 7.1,-1.5 10.8,-1 3.7,0.5 7.4,1.9 10.6,4.3 1.6,1.2 3,2.6 4.2,4.2 0.6,0.8 1.1,1.7 1.6,2.7 0.3,0.5 0.4,0.9 0.5,1.3 l 0.2,0.4 0.1,0.3 0.2,0.7 c 1,3.7 1.3,7.7 1,11.6 -0.2,1.9 -0.5,3.9 -0.9,5.8 -0.2,1 -0.5,1.9 -0.8,2.8 -0.2,0.5 -0.3,0.9 -0.5,1.4 l -0.5,1.3 c -1.3,3.5 -2.6,7 -3.8,10.5 -2.4,7.1 -4.6,14.2 -6.4,21.3 -0.4,1.8 -0.9,3.5 -1.3,5.3 -0.3,1.8 -0.7,3.6 -1,5.3 -0.4,1.8 -0.6,3.5 -0.8,5.3 -0.2,1.8 -0.6,3.5 -0.7,5.2 -0.8,6.9 -0.7,13.7 0.2,20 1,6.3 2.9,12.1 6.1,16.7 3.1,4.6 7.1,7.9 11.2,9.9 4.1,2 8,3 11.2,3.4 3.2,0.5 5.8,0.4 7.6,0.4 1.9,0.2 2.8,0.1 2.8,0.1 z"
         inkscape:connector-curvature="0"
         style="fill:#ffffff" />
      <path
         id="path4182"
         d="m 723.2,654.6 c 0,0 -0.2,-0.1 -0.6,-0.2 -0.4,-0.1 -1.1,-0.4 -1.9,-0.6 -1.6,-0.5 -4,-1.3 -6.8,-2 -2.8,-0.8 -6.2,-1.6 -9.8,-2.2 -1.8,-0.3 -3.7,-0.6 -5.6,-0.8 -1.9,-0.2 -3.9,-0.4 -5.8,-0.5 -1.9,0 -3.9,0 -5.8,0.1 -1.9,0.1 -3.8,0.5 -5.5,0.9 -0.9,0.2 -1.7,0.5 -2.6,0.8 -0.4,0.2 -0.8,0.3 -1.2,0.5 l -0.6,0.2 -0.6,0.3 c -0.4,0.2 -0.7,0.4 -1.1,0.6 -0.4,0.2 -0.7,0.4 -1,0.7 -0.3,0.2 -0.6,0.4 -0.9,0.7 -0.3,0.3 -0.6,0.5 -0.8,0.7 -0.3,0.3 -0.6,0.5 -0.8,0.7 -0.2,0.3 -0.4,0.5 -0.7,0.8 -0.2,0.3 -0.4,0.5 -0.6,0.8 -0.2,0.3 -0.3,0.5 -0.5,0.8 -0.7,1 -1,2 -1.4,2.8 -0.3,0.8 -0.5,1.5 -0.6,1.9 -0.1,0.5 -0.2,0.7 -0.2,0.7 0,0 0,-0.2 0.1,-0.7 0.1,-0.5 0.2,-1.2 0.4,-2 0.3,-0.8 0.5,-1.9 1.2,-3 0.1,-0.3 0.3,-0.6 0.4,-0.9 l 0.6,-0.9 0.6,-0.9 c 0.2,-0.3 0.5,-0.6 0.7,-0.9 0.3,-0.3 0.5,-0.6 0.8,-0.9 0.3,-0.3 0.6,-0.5 0.9,-0.8 0.3,-0.3 0.6,-0.6 1,-0.8 0.4,-0.2 0.7,-0.5 1.1,-0.7 l 0.6,-0.4 0.6,-0.3 1.2,-0.6 c 0.9,-0.4 1.7,-0.8 2.6,-1.1 1.8,-0.6 3.8,-1.2 5.8,-1.5 2,-0.4 4,-0.6 6.1,-0.8 2.1,-0.1 4.1,-0.2 6.1,-0.1 2,0 4,0.1 5.9,0.3 3.8,0.3 7.4,0.8 10.4,1.2 3,0.5 5.5,1 7.3,1.4 0.9,0.2 1.6,0.4 2.1,0.5 0.5,0.1 0.7,0.2 0.7,0.2 1.8,0.4 2.8,2.2 2.4,4 -0.4,1.8 -2.2,2.8 -4,2.4 0.1,-0.3 0,-0.3 -0.2,-0.4 z"
         inkscape:connector-curvature="0"
         style="fill:#ffffff" />
      <path
         id="path4184"
         d="m 745.7,472.3 -0.1,-0.1 -0.3,-0.3 c -0.3,-0.3 -0.9,-0.8 -1.6,-1.3 -0.7,-0.5 -1.7,-0.9 -2.7,-1.2 -1.1,-0.2 -2.2,-0.2 -3.5,0.3 -0.6,0.2 -1.3,0.7 -2,1.1 -0.3,0.3 -0.7,0.6 -1,0.9 -0.5,0.5 -0.8,0.7 -1.3,1.2 -1.9,1.6 -3.9,3 -6.1,4.3 -4.3,2.6 -9.2,4.8 -14.3,6.4 -2.5,0.8 -5.2,1.4 -7.8,1.8 -2.6,0.3 -5.2,0.4 -7.7,0.2 -2.5,-0.2 -4.9,-0.8 -7,-1.6 -2.1,-0.9 -4,-2 -5.5,-3.3 -0.8,-0.6 -1.4,-1.3 -2.1,-1.9 -0.6,-0.7 -1.2,-1.3 -1.6,-2 -0.5,-0.7 -0.9,-1.3 -1.3,-1.8 -0.3,-0.6 -0.6,-1.2 -0.9,-1.7 -0.3,-0.5 -0.5,-0.9 -0.7,-1.4 -0.2,-0.4 -0.3,-0.7 -0.5,-1 -0.2,-0.6 -0.4,-0.8 -0.4,-0.8 0,0 0.2,0.3 0.4,0.8 0.1,0.3 0.3,0.6 0.5,1 0.2,0.4 0.4,0.8 0.8,1.3 0.3,0.5 0.7,1 1,1.6 0.4,0.5 0.9,1.1 1.4,1.7 0.5,0.6 1.1,1.2 1.7,1.8 0.7,0.6 1.3,1.2 2.1,1.7 1.5,1.1 3.4,2 5.4,2.7 2,0.7 4.3,1 6.6,1 4.7,0.1 9.6,-1.1 14.3,-3 4.7,-1.9 9.1,-4.3 12.9,-7.1 1.9,-1.3 3.7,-2.8 5,-4.2 0.3,-0.3 0.8,-0.8 1,-1.1 0.4,-0.5 0.9,-0.9 1.3,-1.3 0.9,-0.8 1.9,-1.6 3.1,-2.1 2.2,-1.2 4.8,-1.4 6.8,-1.1 2,0.3 3.7,1 4.9,1.6 1.2,0.6 2.1,1.3 2.7,1.7 0.3,0.2 0.5,0.4 0.7,0.6 l 0.2,0.2 c 1.3,1.2 1.4,3.3 0.2,4.6 -1.2,1.3 -3.3,1.4 -4.6,0.2 0.1,-0.2 0.1,-0.3 0,-0.4 z"
         inkscape:connector-curvature="0"
         style="fill:#ffffff" />
      <path
         id="path4186"
         d="m 504.4,485.6 c 0,0 0.2,0.2 0.7,0.5 0.4,0.4 1.1,0.9 1.9,1.5 1.6,1.4 3.9,3.4 6.7,6.1 2.8,2.7 6.1,6.2 9.6,10.4 3.5,4.2 7.2,9.2 10.6,15 3.4,5.8 6.6,12.5 8.8,19.9 2.1,7.5 3.3,15.8 2.5,24.3 -0.8,8.5 -3.4,17 -7.5,24.9 -0.5,1 -1,2 -1.6,2.9 l -1.7,2.9 -1.7,2.8 c -0.6,0.9 -1,1.8 -1.6,2.7 -2,3.7 -3.6,7.7 -4.7,11.8 -2.3,8.2 -2.8,16.9 -2.2,25.4 0.7,8.5 2.5,16.7 4.9,24.5 2.4,7.8 5.4,15.1 8.6,21.9 3.2,6.8 6.5,13.1 9.9,18.7 6.6,11.3 13,20.3 17.5,26.4 4.6,6.1 7.5,9.5 7.5,9.5 0,0 -2.9,-3.3 -7.7,-9.3 -4.7,-6 -11.3,-14.8 -18.2,-26.1 -3.5,-5.6 -7,-11.8 -10.3,-18.6 -3.4,-6.8 -6.6,-14.1 -9.2,-21.9 -2.6,-7.8 -4.7,-16.2 -5.6,-24.9 -0.9,-8.7 -0.6,-17.7 1.6,-26.5 1.1,-4.4 2.7,-8.6 4.7,-12.6 0.5,-1 1,-2.1 1.6,-3 l 0.8,-1.4 0.8,-1.4 1.6,-2.8 c 0.5,-0.9 1.1,-1.8 1.5,-2.8 3.7,-7.5 6,-15.6 6.5,-23.4 0.5,-7.9 -0.7,-15.6 -2.9,-22.5 -2.2,-6.9 -5.4,-13.1 -8.7,-18.5 -3.4,-5.4 -7,-10.1 -10.4,-14 -3.4,-3.9 -6.7,-7.1 -9.4,-9.7 -2.7,-2.6 -5,-4.4 -6.5,-5.7 -0.8,-0.6 -1.4,-1.1 -1.8,-1.4 -0.4,-0.3 -0.6,-0.4 -0.6,-0.4 l -0.1,0 c -1.4,-1.1 -1.7,-3.1 -0.7,-4.6 1.2,-1.4 3.3,-1.7 4.8,-0.6 -0.1,0 0,0 0,0 z"
         inkscape:connector-curvature="0"
         style="fill:#ffffff" />
      <path
         id="path4188"
         d="m 639.3,396.2 c 0,0 -1,2.7 -2.8,7.4 -0.4,1.2 -0.9,2.5 -1.5,3.9 -0.6,1.4 -1.2,2.9 -1.9,4.5 -0.7,1.6 -1.4,3.3 -2.2,5.1 -0.8,1.8 -1.8,3.6 -2.7,5.6 -1,1.9 -1.9,4 -3,6 -1.1,2 -2.3,4.1 -3.5,6.3 -0.3,0.5 -0.6,1.1 -0.9,1.6 -0.3,0.5 -0.7,1.1 -1,1.6 -0.7,1.1 -1.4,2.2 -2.1,3.3 -0.7,1.1 -1.4,2.2 -2.1,3.3 l -2.4,3.3 -2.4,3.3 c -0.8,1.1 -1.7,2.1 -2.6,3.2 l -2.7,3.3 c -0.4,0.6 -0.9,1.1 -1.4,1.6 l -1.5,1.6 c -1,1 -2,2.1 -2.9,3.1 -1,1 -2.1,2 -3.1,3 -1.1,1 -2.1,2 -3.2,3 L 590,473 c -2.2,1.9 -4.7,3.5 -7,5.2 l -1.8,1.2 -1.8,1.1 -1.8,1.1 c -0.6,0.4 -1.2,0.8 -1.9,1.1 -2.5,1.3 -5,2.7 -7.7,3.8 -2.6,1.2 -5.2,2.2 -7.8,3.1 -1.3,0.5 -2.6,0.8 -3.9,1.3 -1.3,0.4 -2.6,0.8 -3.9,1.1 -1.3,0.3 -2.6,0.6 -3.8,0.9 -1.3,0.2 -2.5,0.5 -3.8,0.7 -5,0.8 -9.8,1.3 -14.2,1.4 -4.4,0.1 -8.5,0 -12.1,-0.4 -3.6,-0.3 -6.7,-0.8 -9.3,-1.3 -2.6,-0.5 -4.6,-1 -5.9,-1.4 -0.7,-0.2 -1.2,-0.3 -1.6,-0.5 -0.4,-0.1 -0.6,-0.2 -0.6,-0.2 -1.7,-0.6 -2.6,-2.4 -2.1,-4.1 0.6,-1.7 2.4,-2.6 4.1,-2.1 l 0.1,0 0.1,0.1 c 0,0 0.1,0 0.4,0.1 0.3,0.1 0.7,0.3 1.3,0.4 1.2,0.4 3,0.9 5.4,1.4 2.4,0.5 5.2,1.1 8.6,1.5 3.4,0.5 7.2,0.7 11.4,0.8 4.2,0.1 8.7,-0.2 13.5,-0.9 1.2,-0.2 2.4,-0.4 3.6,-0.5 1.2,-0.3 2.4,-0.5 3.7,-0.8 1.2,-0.2 2.5,-0.6 3.7,-0.9 1.2,-0.4 2.5,-0.6 3.8,-1.1 2.5,-0.8 5,-1.6 7.5,-2.7 2.5,-1 5,-2.2 7.5,-3.4 0.6,-0.3 1.2,-0.6 1.8,-1 l 1.8,-1 1.8,-1 c 0.6,-0.3 1.2,-0.7 1.8,-1.1 2.3,-1.6 4.8,-3 6.9,-4.8 l 3.4,-2.6 c 1.1,-0.9 2.1,-1.8 3.2,-2.8 1.1,-0.9 2.1,-1.8 3.2,-2.8 l 3,-3 1.5,-1.5 c 0.5,-0.5 1,-1 1.4,-1.5 0.9,-1 1.8,-2.1 2.7,-3.1 0.9,-1 1.9,-2 2.7,-3.1 0.8,-1.1 1.7,-2.1 2.5,-3.2 0.8,-1.1 1.6,-2.1 2.4,-3.1 0.7,-1.1 1.5,-2.1 2.2,-3.2 0.7,-1.1 1.5,-2.1 2.2,-3.1 0.4,-0.5 0.7,-1 1.1,-1.5 0.3,-0.5 0.6,-1.1 1,-1.6 1.3,-2.1 2.5,-4.1 3.7,-6.1 1.2,-2 2.2,-4 3.2,-5.9 1,-1.9 2,-3.7 2.9,-5.4 0.8,-1.8 1.6,-3.4 2.4,-5 0.7,-1.6 1.4,-3.1 2.1,-4.4 0.6,-1.4 1.1,-2.7 1.6,-3.8 2,-4.5 3.1,-7.2 3.1,-7.2 z"
         inkscape:connector-curvature="0"
         style="fill:#ffffff" />
    </g>
    <g
       id="g4285"
       transform="matrix(0.65888318,0,0,0.65888318,149.04801,88.127594)">
      <path
         id="path4252"
         d="M 222.99,68.216 C 330.68,24.124 425.8,14.598 429.04,14.355 c 3.24,-0.243 -60.958,141.46 -135.46,184.87 -74.502,43.41 -199.79,116.92 -205.71,116.16 -7.3794,5.2803 -43.686,20.423 -47.92,26.798 -11.192,15.349 2.0482,-22.63 0.87481,-27.762 -1.706,-11.497 74.475,-202.11 182.16,-246.21 z"
         inkscape:connector-curvature="0"
         style="fill:#ffffff;fill-rule:evenodd;stroke:#000000;stroke-width:11.51599979" />
      <path
         id="path4254"
         d="m 304.5,99.442 c 48.263,0.58831 78.113,-20.456 90.813,-22.98 -6.8712,14.402 -38.19,58.639 -54.445,73.687 -40.601,6.6668 -74.491,20.903 -108.08,3.8344 11.207,-7.4444 64.202,-51.669 71.712,-54.541 z"
         inkscape:connector-curvature="0"
         style="fill:#ff8900;fill-rule:evenodd" />
      <path
         id="path4256"
         d="m 158.32,219.71 c 7.3766,6.1513 79.412,-12.275 103.03,-9.8176 24.96,-11.584 63.776,-39.591 79.354,-59.533 -33.787,5.0589 -69.372,14.109 -103.62,6.8502 -4.0152,-1.5006 -50.42,36.921 -78.762,62.5 z"
         inkscape:connector-curvature="0"
         style="fill:#00ff00;fill-rule:evenodd" />
      <path
         id="path4258"
         d="m 174.26,211.87 c -12.377,-63.204 2.3548,-93.023 3.8808,-106.03 -11.851,11.825 -39.787,30.721 -58.216,61.089 -7.2138,22.785 -13.736,89.026 -10.285,91.77 7.7771,-8.7986 53.597,-37.655 64.62,-46.832 z"
         inkscape:connector-curvature="0"
         style="fill:#ffff00;fill-rule:evenodd" />
      <path
         id="path4260"
         d="m 429.04,14.355 c -5.1384,13.179 -21.866,45.141 -33.32,61.914 -19.823,14.045 -82.812,35.827 -87.456,25.367 9.7444,-9.9312 99.062,-76.558 120.78,-87.28 z"
         inkscape:connector-curvature="0"
         style="fill:#ff0000;fill-rule:evenodd" />
      <path
         id="path4262"
         d="m 260.66,62.558 c -13.448,-2.6003 -69.707,18.789 -87.977,45.78 -6.4774,14.267 -20.555,76.383 -2.9582,101.84 12.565,-15.317 56.436,-57.972 77.766,-71.05 -6.7566,-12.704 10.347,-70.358 13.169,-76.573 z"
         inkscape:connector-curvature="0"
         style="fill:#00ff00;fill-rule:evenodd" />
      <path
         id="path4264"
         d="M 237.37,141.67 340.48,62.412 c 4.7171,-11.396 -11.073,-13.633 -3.9685,-28.427 -8.874,-2.7583 -77.157,22.636 -84.79,28.37 -2.2577,4.9727 -28.355,58.373 -14.348,79.314 z"
         inkscape:connector-curvature="0"
         style="fill:#ff8f00;fill-rule:evenodd" />
      <path
         id="path4266"
         d="m 315.55,86.149 c -15.362,-24.8 17.377,-44.703 21.675,-52.308 10.967,-7.1896 60.653,-13.543 85.546,-16.014 -11.336,6.8448 -99.61,65.35 -107.22,68.322 z"
         inkscape:connector-curvature="0"
         style="fill:#ff0000;fill-rule:evenodd" />
      <path
         id="path4268"
         d="m 166.03,216 c 5.9595,4.9977 81.989,-7.418 95.619,-5.3702 -14.196,8.9635 -61.042,38.532 -74.87,46.867 -9.3802,-2.4687 -73.561,20.545 -70.739,14.33 2.822,-6.215 25.038,-36.687 49.99,-55.827 z"
         inkscape:connector-curvature="0"
         style="fill:#ffff00;fill-rule:evenodd" />
      <path
         id="path4270"
         d="m 117.3,265.62 c -2.5317,-8.2168 -4.1226,-71.014 4.0281,-104.19 -9.1046,8.8543 -84.09,149.55 -76.769,161.01 7.321,11.46 65.183,-47.525 72.741,-56.819 z"
         inkscape:connector-curvature="0"
         style="fill:#bb2bff;fill-rule:evenodd" />
      <path
         id="path4272"
         d="m 86.903,303.28 c 7.128,-19.148 22.285,-23.806 29.389,-30.847 8.0304,3.0013 72.297,-21.399 80.892,-19.641 -20.197,11.835 -46.374,26.576 -66.531,36.492 -20.157,9.916 -44.67,19.469 -43.75,13.996 z"
         inkscape:connector-curvature="0"
         style="fill:#bb2bff;fill-rule:evenodd" />
      <path
         id="path4276"
         d="M 194.52,207.74 C 211.125,187.798 426.78,19.31 424.1,18.31 323.53,63.376 217.1,157.68 184.53,194.95 151.96,232.22 -4.02,370.04 2.84,381.75 19.515,390.1778 174.16,230.47 194.52,207.74 Z"
         inkscape:connector-curvature="0"
         style="fill:url(#linearGradient4330);fill-rule:evenodd;stroke:#000000;stroke-width:6.25" />
    </g>
    <text
       xml:space="preserve"
       style="font-style:normal;font-variant:normal;font-weight:normal;font-stretch:normal;font-size:60px;line-height:125%;font-family:'Noto Naskh Arabic';-inkscape-font-specification:'Noto Naskh Arabic';letter-spacing:0px;word-spacing:0px;opacity:1;fill:#646464;fill-opacity:1;stroke:none;stroke-width:1px;stroke-linecap:butt;stroke-linejoin:miter;stroke-opacity:1"
       id="text4332"
       sodipodi:linespacing="125%"
       x="5"
       y="1.4285715"
       transform="translate(0.71428572,1.4285714)"><textPath
         xlink:href="#path4336"
         id="textPath4338"
         style="font-style:normal;font-variant:normal;font-weight:normal;font-stretch:normal;font-size:60px;font-family:Sawasdee;-inkscape-font-specification:Sawasdee;fill:#646464;fill-opacity:1;stroke:none;stroke-opacity:1">Neurowriter</textPath></text>
    <path
       style="opacity:0;fill:none;fill-rule:evenodd;stroke:#000000;stroke-width:1px;stroke-linecap:butt;stroke-linejoin:miter;stroke-opacity:1"
       d="m 145.85715,378.79078 c 165.85798,73.39589 269.78577,13.74204 313.57143,-20.71428"
       id="path4336"
       inkscape:connector-curvature="0"
       sodipodi:nodetypes="cc" />
  </g>
</svg>
